<mxfile host="app.diagrams.net" modified="2022-02-14T03:11:22.489Z" agent="5.0 (Windows NT 10.0; WOW64) AppleWebKit/537.36 (KHTML, like Gecko) Chrome/97.0.4692.71 Safari/537.36" etag="o6OOnddLiB3pyfdbgmMf" version="16.4.11" type="github">
  <diagram id="jQrOPHSQlCrRj25DtOaN" name="Page-1">
    <mxGraphModel dx="1422" dy="762" grid="1" gridSize="10" guides="1" tooltips="1" connect="1" arrows="1" fold="1" page="1" pageScale="1" pageWidth="827" pageHeight="1169" math="0" shadow="0">
      <root>
        <mxCell id="0" />
        <mxCell id="1" parent="0" />
        <mxCell id="KZvTcLUDpUq6Z3vSpvz5-4" style="edgeStyle=orthogonalEdgeStyle;rounded=0;orthogonalLoop=1;jettySize=auto;html=1;entryX=0.583;entryY=0;entryDx=0;entryDy=0;entryPerimeter=0;" edge="1" parent="1" source="KZvTcLUDpUq6Z3vSpvz5-1" target="KZvTcLUDpUq6Z3vSpvz5-2">
          <mxGeometry relative="1" as="geometry" />
        </mxCell>
        <mxCell id="KZvTcLUDpUq6Z3vSpvz5-6" value="next" style="edgeLabel;html=1;align=center;verticalAlign=middle;resizable=0;points=[];" vertex="1" connectable="0" parent="KZvTcLUDpUq6Z3vSpvz5-4">
          <mxGeometry x="-0.2545" y="-3" relative="1" as="geometry">
            <mxPoint as="offset" />
          </mxGeometry>
        </mxCell>
        <mxCell id="KZvTcLUDpUq6Z3vSpvz5-5" style="edgeStyle=orthogonalEdgeStyle;rounded=0;orthogonalLoop=1;jettySize=auto;html=1;entryX=0.6;entryY=-0.067;entryDx=0;entryDy=0;entryPerimeter=0;" edge="1" parent="1" source="KZvTcLUDpUq6Z3vSpvz5-1" target="KZvTcLUDpUq6Z3vSpvz5-3">
          <mxGeometry relative="1" as="geometry" />
        </mxCell>
        <mxCell id="KZvTcLUDpUq6Z3vSpvz5-7" value="pre" style="edgeLabel;html=1;align=center;verticalAlign=middle;resizable=0;points=[];" vertex="1" connectable="0" parent="KZvTcLUDpUq6Z3vSpvz5-5">
          <mxGeometry x="-0.2321" y="-1" relative="1" as="geometry">
            <mxPoint as="offset" />
          </mxGeometry>
        </mxCell>
        <mxCell id="KZvTcLUDpUq6Z3vSpvz5-1" value="dummy" style="rounded=0;whiteSpace=wrap;html=1;" vertex="1" parent="1">
          <mxGeometry x="320" y="230" width="120" height="60" as="geometry" />
        </mxCell>
        <mxCell id="KZvTcLUDpUq6Z3vSpvz5-9" style="edgeStyle=orthogonalEdgeStyle;rounded=0;orthogonalLoop=1;jettySize=auto;html=1;entryX=1;entryY=0.25;entryDx=0;entryDy=0;" edge="1" parent="1" source="KZvTcLUDpUq6Z3vSpvz5-2" target="KZvTcLUDpUq6Z3vSpvz5-3">
          <mxGeometry relative="1" as="geometry">
            <Array as="points">
              <mxPoint x="440" y="355" />
              <mxPoint x="440" y="355" />
            </Array>
          </mxGeometry>
        </mxCell>
        <mxCell id="KZvTcLUDpUq6Z3vSpvz5-10" value="pre" style="edgeLabel;html=1;align=center;verticalAlign=middle;resizable=0;points=[];" vertex="1" connectable="0" parent="KZvTcLUDpUq6Z3vSpvz5-9">
          <mxGeometry x="-0.3172" y="-4" relative="1" as="geometry">
            <mxPoint as="offset" />
          </mxGeometry>
        </mxCell>
        <mxCell id="KZvTcLUDpUq6Z3vSpvz5-2" value="head" style="rounded=0;whiteSpace=wrap;html=1;" vertex="1" parent="1">
          <mxGeometry x="510" y="340" width="120" height="60" as="geometry" />
        </mxCell>
        <mxCell id="KZvTcLUDpUq6Z3vSpvz5-8" style="edgeStyle=orthogonalEdgeStyle;rounded=0;orthogonalLoop=1;jettySize=auto;html=1;entryX=0;entryY=0.5;entryDx=0;entryDy=0;" edge="1" parent="1" source="KZvTcLUDpUq6Z3vSpvz5-3" target="KZvTcLUDpUq6Z3vSpvz5-2">
          <mxGeometry relative="1" as="geometry" />
        </mxCell>
        <mxCell id="KZvTcLUDpUq6Z3vSpvz5-11" value="next" style="edgeLabel;html=1;align=center;verticalAlign=middle;resizable=0;points=[];" vertex="1" connectable="0" parent="KZvTcLUDpUq6Z3vSpvz5-8">
          <mxGeometry x="-0.1448" y="1" relative="1" as="geometry">
            <mxPoint as="offset" />
          </mxGeometry>
        </mxCell>
        <mxCell id="KZvTcLUDpUq6Z3vSpvz5-3" value="tail" style="rounded=0;whiteSpace=wrap;html=1;" vertex="1" parent="1">
          <mxGeometry x="100" y="340" width="120" height="60" as="geometry" />
        </mxCell>
        <mxCell id="KZvTcLUDpUq6Z3vSpvz5-13" style="edgeStyle=orthogonalEdgeStyle;rounded=0;orthogonalLoop=1;jettySize=auto;html=1;entryX=0.408;entryY=-0.017;entryDx=0;entryDy=0;entryPerimeter=0;dashed=1;" edge="1" parent="1" source="KZvTcLUDpUq6Z3vSpvz5-12" target="KZvTcLUDpUq6Z3vSpvz5-1">
          <mxGeometry relative="1" as="geometry" />
        </mxCell>
        <mxCell id="KZvTcLUDpUq6Z3vSpvz5-12" value="&lt;span style=&quot;font-family: &amp;quot;source code pro&amp;quot;, &amp;quot;dejavu sans mono&amp;quot;, &amp;quot;ubuntu mono&amp;quot;, &amp;quot;anonymous pro&amp;quot;, &amp;quot;droid sans mono&amp;quot;, menlo, monaco, consolas, inconsolata, courier, &amp;quot;pingfang sc&amp;quot;, &amp;quot;microsoft yahei&amp;quot;, sans-serif; font-size: 14px; font-style: italic; background-color: rgb(255, 255, 255);&quot;&gt;dummy节点是一个冗余节点，dummy的next是链表的第一个节点，dummy的pre是链表的最后一个节点&lt;/span&gt;" style="text;html=1;strokeColor=none;fillColor=none;align=center;verticalAlign=middle;whiteSpace=wrap;rounded=0;fontColor=#000000;" vertex="1" parent="1">
          <mxGeometry x="390" y="110" width="270" height="60" as="geometry" />
        </mxCell>
        <mxCell id="KZvTcLUDpUq6Z3vSpvz5-39" value="&lt;span style=&quot;font-family: &amp;quot;source code pro&amp;quot;, &amp;quot;dejavu sans mono&amp;quot;, &amp;quot;ubuntu mono&amp;quot;, &amp;quot;anonymous pro&amp;quot;, &amp;quot;droid sans mono&amp;quot;, menlo, monaco, consolas, inconsolata, courier, &amp;quot;pingfang sc&amp;quot;, &amp;quot;microsoft yahei&amp;quot;, sans-serif; font-size: 14px; font-style: italic; background-color: rgb(255, 255, 255);&quot;&gt;在链表尾部添加新节点&lt;/span&gt;" style="text;html=1;strokeColor=none;fillColor=none;align=center;verticalAlign=middle;whiteSpace=wrap;rounded=0;labelBackgroundColor=#FFFFFF;fontSize=19;fontColor=#000000;" vertex="1" parent="1">
          <mxGeometry x="40" y="530" width="60" height="30" as="geometry" />
        </mxCell>
        <mxCell id="KZvTcLUDpUq6Z3vSpvz5-40" style="edgeStyle=orthogonalEdgeStyle;rounded=0;orthogonalLoop=1;jettySize=auto;html=1;entryX=0.583;entryY=0;entryDx=0;entryDy=0;entryPerimeter=0;" edge="1" source="KZvTcLUDpUq6Z3vSpvz5-44" target="KZvTcLUDpUq6Z3vSpvz5-47" parent="1">
          <mxGeometry relative="1" as="geometry" />
        </mxCell>
        <mxCell id="KZvTcLUDpUq6Z3vSpvz5-41" value="next" style="edgeLabel;html=1;align=center;verticalAlign=middle;resizable=0;points=[];" vertex="1" connectable="0" parent="KZvTcLUDpUq6Z3vSpvz5-40">
          <mxGeometry x="-0.2545" y="-3" relative="1" as="geometry">
            <mxPoint as="offset" />
          </mxGeometry>
        </mxCell>
        <mxCell id="KZvTcLUDpUq6Z3vSpvz5-42" style="edgeStyle=orthogonalEdgeStyle;rounded=0;orthogonalLoop=1;jettySize=auto;html=1;entryX=0.6;entryY=-0.067;entryDx=0;entryDy=0;entryPerimeter=0;" edge="1" source="KZvTcLUDpUq6Z3vSpvz5-44" target="KZvTcLUDpUq6Z3vSpvz5-50" parent="1">
          <mxGeometry relative="1" as="geometry" />
        </mxCell>
        <mxCell id="KZvTcLUDpUq6Z3vSpvz5-43" value="pre" style="edgeLabel;html=1;align=center;verticalAlign=middle;resizable=0;points=[];" vertex="1" connectable="0" parent="KZvTcLUDpUq6Z3vSpvz5-42">
          <mxGeometry x="-0.2321" y="-1" relative="1" as="geometry">
            <mxPoint as="offset" />
          </mxGeometry>
        </mxCell>
        <mxCell id="KZvTcLUDpUq6Z3vSpvz5-44" value="dummy" style="rounded=0;whiteSpace=wrap;html=1;" vertex="1" parent="1">
          <mxGeometry x="320" y="590" width="120" height="60" as="geometry" />
        </mxCell>
        <mxCell id="KZvTcLUDpUq6Z3vSpvz5-45" style="edgeStyle=orthogonalEdgeStyle;rounded=0;orthogonalLoop=1;jettySize=auto;html=1;entryX=1;entryY=0.25;entryDx=0;entryDy=0;" edge="1" source="KZvTcLUDpUq6Z3vSpvz5-47" target="KZvTcLUDpUq6Z3vSpvz5-50" parent="1">
          <mxGeometry relative="1" as="geometry">
            <Array as="points">
              <mxPoint x="440" y="715" />
              <mxPoint x="440" y="715" />
            </Array>
          </mxGeometry>
        </mxCell>
        <mxCell id="KZvTcLUDpUq6Z3vSpvz5-46" value="pre" style="edgeLabel;html=1;align=center;verticalAlign=middle;resizable=0;points=[];" vertex="1" connectable="0" parent="KZvTcLUDpUq6Z3vSpvz5-45">
          <mxGeometry x="-0.3172" y="-4" relative="1" as="geometry">
            <mxPoint as="offset" />
          </mxGeometry>
        </mxCell>
        <mxCell id="KZvTcLUDpUq6Z3vSpvz5-47" value="head" style="rounded=0;whiteSpace=wrap;html=1;" vertex="1" parent="1">
          <mxGeometry x="510" y="700" width="120" height="60" as="geometry" />
        </mxCell>
        <mxCell id="KZvTcLUDpUq6Z3vSpvz5-48" style="edgeStyle=orthogonalEdgeStyle;rounded=0;orthogonalLoop=1;jettySize=auto;html=1;entryX=0;entryY=0.5;entryDx=0;entryDy=0;" edge="1" source="KZvTcLUDpUq6Z3vSpvz5-50" target="KZvTcLUDpUq6Z3vSpvz5-47" parent="1">
          <mxGeometry relative="1" as="geometry" />
        </mxCell>
        <mxCell id="KZvTcLUDpUq6Z3vSpvz5-49" value="next" style="edgeLabel;html=1;align=center;verticalAlign=middle;resizable=0;points=[];" vertex="1" connectable="0" parent="KZvTcLUDpUq6Z3vSpvz5-48">
          <mxGeometry x="-0.1448" y="1" relative="1" as="geometry">
            <mxPoint as="offset" />
          </mxGeometry>
        </mxCell>
        <mxCell id="KZvTcLUDpUq6Z3vSpvz5-50" value="tail" style="rounded=0;whiteSpace=wrap;html=1;" vertex="1" parent="1">
          <mxGeometry x="100" y="700" width="120" height="60" as="geometry" />
        </mxCell>
        <mxCell id="KZvTcLUDpUq6Z3vSpvz5-51" style="edgeStyle=orthogonalEdgeStyle;rounded=0;orthogonalLoop=1;jettySize=auto;html=1;entryX=0.408;entryY=-0.017;entryDx=0;entryDy=0;entryPerimeter=0;dashed=1;" edge="1" source="KZvTcLUDpUq6Z3vSpvz5-52" target="KZvTcLUDpUq6Z3vSpvz5-44" parent="1">
          <mxGeometry relative="1" as="geometry" />
        </mxCell>
        <mxCell id="KZvTcLUDpUq6Z3vSpvz5-52" value="&lt;span style=&quot;font-family: &amp;quot;source code pro&amp;quot;, &amp;quot;dejavu sans mono&amp;quot;, &amp;quot;ubuntu mono&amp;quot;, &amp;quot;anonymous pro&amp;quot;, &amp;quot;droid sans mono&amp;quot;, menlo, monaco, consolas, inconsolata, courier, &amp;quot;pingfang sc&amp;quot;, &amp;quot;microsoft yahei&amp;quot;, sans-serif; font-size: 14px; font-style: italic; background-color: rgb(255, 255, 255);&quot;&gt;dummy节点是一个冗余节点，dummy的next是链表的第一个节点，dummy的pre是链表的最后一个节点&lt;/span&gt;" style="text;html=1;strokeColor=none;fillColor=none;align=center;verticalAlign=middle;whiteSpace=wrap;rounded=0;fontColor=#000000;" vertex="1" parent="1">
          <mxGeometry x="390" y="470" width="270" height="60" as="geometry" />
        </mxCell>
      </root>
    </mxGraphModel>
  </diagram>
</mxfile>
